<?xml version="1.0" encoding="UTF-8" standalone="no"?>
<svg version="1.1" xmlns="http://www.w3.org/2000/svg" xmlns:xlink="http://www.w3.org/1999/xlink" xml:space="preserve"
	x="0px" y="0px" width="575px" height="115px" class="scenario">
	<rect x="8" y="25" width="15" height="50" fill="#CD7058"/>
	<rect x="29" y="25" width="15" height="50" fill="#599AD3"/>
	<rect x="50" y="25" width="15" height="50" fill="#F9A65A"/>
	<rect x="71" y="25" width="15" height="50" fill="#CD7058"/>
	<rect x="92" y="25" width="15" height="50" fill="#599AD3"/>
	<rect x="113" y="25" width="15" height="50" fill="#F9A65A"/>
	<rect x="134" y="25" width="15" height="50" fill="#CD7058"/>
	<rect x="155" y="25" width="15" height="50" fill="#599AD3"/>
	<rect x="176" y="25" width="15" height="50" fill="#F9A65A"/>
	<rect x="197" y="25" width="15" height="50" fill="#CD7058"/>
	<rect x="218" y="25" width="15" height="50" fill="#599AD3"/>
	<rect x="239" y="25" width="15" height="50" fill="#F9A65A"/>
	<rect x="260" y="25" width="15" height="50" fill="#CD7058"/>
	<rect x="281" y="25" width="15" height="50" fill="#599AD3"/>
	<rect x="302" y="25" width="15" height="50" fill="#F9A65A"/>
	<rect x="323" y="25" width="15" height="50" fill="#CD7058"/>
	<rect x="344" y="25" width="15" height="50" fill="#599AD3"/>
	<rect x="365" y="25" width="15" height="50" fill="#F9A65A"/>
	<rect x="386" y="25" width="15" height="50" fill="#CD7058"/>
	<rect x="407" y="25" width="15" height="50" fill="#599AD3"/>
	<rect x="428" y="25" width="15" height="50" fill="#F9A65A"/>
	<rect x="449" y="25" width="15" height="50" fill="#CD7058"/>
	<rect x="470" y="25" width="15" height="50" fill="#599AD3"/>
	<rect x="491" y="25" width="15" height="50" fill="#F9A65A"/>
	<rect x="512" y="25" width="15" height="50" fill="#CD7058"/>
	<rect x="533" y="25" width="15" height="50" fill="#599AD3"/>
	<rect x="554" y="25" width="15" height="50" fill="#F9A65A"/>

    <text x="10" y="18" font-family="Verdana" font-size="12"> A </text>
    <text x="30" y="18" font-family="Verdana" font-size="12"> B </text>
    <text x="50" y="18" font-family="Verdana" font-size="12"> C </text>
    <text x="71" y="18" font-family="Verdana" font-size="12"> A </text>
    <text x="91" y="18" font-family="Verdana" font-size="12"> B </text>
    <text x="111" y="18" font-family="Verdana" font-size="12"> C </text>
    <text x="133" y="18" font-family="Verdana" font-size="12"> A </text>
    <text x="153" y="18" font-family="Verdana" font-size="12"> B </text>
    <text x="174" y="18" font-family="Verdana" font-size="12"> C </text>
    <text x="195" y="18" font-family="Verdana" font-size="12"> A </text>
    <text x="216" y="18" font-family="Verdana" font-size="12"> B </text>
    <text x="237" y="18" font-family="Verdana" font-size="12"> C </text>
    <text x="258" y="18" font-family="Verdana" font-size="12"> A </text>
    <text x="279" y="18" font-family="Verdana" font-size="12"> B </text>
    <text x="300" y="18" font-family="Verdana" font-size="12"> C </text>
    <text x="321" y="18" font-family="Verdana" font-size="12"> A </text>
    <text x="343" y="18" font-family="Verdana" font-size="12"> B </text>
    <text x="364" y="18" font-family="Verdana" font-size="12"> C </text>
    <text x="385" y="18" font-family="Verdana" font-size="12"> A </text>
    <text x="406" y="18" font-family="Verdana" font-size="12"> B </text>
    <text x="427" y="18" font-family="Verdana" font-size="12"> C </text>
    <text x="448" y="18" font-family="Verdana" font-size="12"> A </text>
    <text x="469" y="18" font-family="Verdana" font-size="12"> B </text>
    <text x="490" y="18" font-family="Verdana" font-size="12"> C </text>
    <text x="511" y="18" font-family="Verdana" font-size="12"> A </text>
    <text x="532" y="18" font-family="Verdana" font-size="12"> B </text>
    <text x="553" y="18" font-family="Verdana" font-size="12"> C </text>
	
	
	<rect x="8" y="85" width="570" height="4" fill="#999999"/>
	<rect x="8" y="80" width="5" height="8" fill="#999999"/>
	<rect x="199" y="80" width="5" height="8" fill="#999999"/>
	<rect x="390" y="80" width="5" height="8" fill="#999999"/>
	<rect x="570" y="80" width="5" height="8" fill="#999999"/>
    <text x="80" y="101" font-family="Verdana" font-size="12"> Month 1 </text>
    <text x="275" y="101" font-family="Verdana" font-size="12"> Month 2 </text>
    <text x="465" y="101" font-family="Verdana" font-size="12"> Month 3 </text>		
</svg>
